<svg width="265" height="200" viewBox="0 0 265 200" fill="none" xmlns="http://www.w3.org/2000/svg">
<path d="M68.9872 149.418H68.9343C68.2732 149.365 67.612 149.285 66.9509 149.185C66.8641 149.173 66.7806 149.143 66.7052 149.098C66.6298 149.053 66.564 148.994 66.5115 148.923C66.459 148.853 66.4209 148.772 66.3993 148.687C66.3777 148.602 66.373 148.513 66.3856 148.426C66.3982 148.339 66.4278 148.255 66.4726 148.179C66.5175 148.104 66.5768 148.038 66.6471 147.985C66.7174 147.932 66.7973 147.894 66.8823 147.872C66.9674 147.851 67.0558 147.846 67.1426 147.859C67.7817 147.952 68.423 148.025 69.0665 148.078C69.2419 148.085 69.4072 148.161 69.5263 148.291C69.6453 148.42 69.7082 148.592 69.7012 148.768C69.6942 148.943 69.6178 149.109 69.4889 149.229C69.3599 149.348 69.189 149.411 69.0136 149.404L68.9872 149.418ZM75.5985 149.166C75.5117 149.172 75.4244 149.161 75.3417 149.134C75.259 149.107 75.1825 149.063 75.1165 149.006C75.0505 148.949 74.9963 148.88 74.9571 148.802C74.9178 148.724 74.8943 148.639 74.8878 148.552C74.8813 148.465 74.8919 148.377 74.9191 148.294C74.9463 148.211 74.9896 148.134 75.0463 148.068C75.1031 148.002 75.1724 147.948 75.2501 147.908C75.3278 147.869 75.4125 147.845 75.4993 147.839C76.1274 147.739 76.7687 147.613 77.3968 147.461C77.4814 147.441 77.5691 147.438 77.6548 147.453C77.7405 147.467 77.8225 147.498 77.8962 147.544C77.9699 147.591 78.0338 147.651 78.0842 147.722C78.1346 147.793 78.1706 147.873 78.1901 147.958C78.2299 148.129 78.2007 148.308 78.1091 148.457C78.0174 148.607 77.8707 148.713 77.7009 148.754C77.0397 148.913 76.3786 149.046 75.7175 149.152L75.5985 149.166ZM60.6569 147.547C60.5803 147.547 60.5042 147.533 60.4322 147.507C59.771 147.275 59.176 147.023 58.5546 146.757C58.4747 146.723 58.4023 146.673 58.3417 146.611C58.281 146.548 58.2332 146.474 58.2009 146.393C58.1687 146.312 58.1527 146.226 58.1538 146.139C58.1549 146.051 58.1732 145.965 58.2075 145.885C58.2418 145.805 58.2914 145.732 58.3537 145.671C58.4159 145.611 58.4895 145.563 58.5703 145.53C58.651 145.498 58.7373 145.482 58.8242 145.483C58.9111 145.484 58.997 145.502 59.0768 145.537C59.6719 145.795 60.2867 146.034 60.8883 146.26C61.035 146.313 61.1581 146.417 61.2359 146.553C61.3137 146.688 61.3412 146.847 61.3135 147.001C61.2858 147.155 61.2047 147.295 61.0845 147.394C60.9644 147.494 60.8129 147.548 60.6569 147.547ZM83.7502 146.525C83.6263 146.525 83.5048 146.491 83.3996 146.425C83.2944 146.359 83.2097 146.265 83.1552 146.154C83.0772 145.996 83.0648 145.814 83.1206 145.647C83.1764 145.481 83.2958 145.343 83.4527 145.265C84.0279 144.986 84.6031 144.674 85.165 144.349C85.2405 144.305 85.3238 144.277 85.4103 144.266C85.4968 144.254 85.5846 144.26 85.6688 144.283C85.753 144.306 85.8319 144.345 85.9008 144.399C85.9698 144.452 86.0276 144.519 86.0708 144.595C86.157 144.747 86.1796 144.927 86.1338 145.096C86.088 145.265 85.9774 145.409 85.8262 145.497C85.2377 145.835 84.6361 146.16 84.0411 146.459C83.9425 146.507 83.8334 146.53 83.7238 146.525H83.7502ZM52.9812 143.699C52.8552 143.701 52.7313 143.666 52.6242 143.6C52.0623 143.241 51.5003 142.863 50.9516 142.479C50.808 142.378 50.7099 142.225 50.679 142.052C50.648 141.879 50.6866 141.701 50.7863 141.556C50.8864 141.412 51.0393 141.314 51.2116 141.283C51.3839 141.252 51.5614 141.29 51.7052 141.391C52.2408 141.769 52.7829 142.127 53.3316 142.479C53.4509 142.556 53.5423 142.67 53.5921 142.803C53.6419 142.937 53.6476 143.082 53.6083 143.219C53.569 143.356 53.4868 143.477 53.3738 143.563C53.2609 143.65 53.1232 143.697 52.9812 143.699ZM90.864 141.795C90.7679 141.794 90.6733 141.773 90.5865 141.731C90.4997 141.69 90.423 141.63 90.3615 141.556C90.3051 141.49 90.2622 141.413 90.2353 141.331C90.2084 141.248 90.198 141.16 90.2048 141.074C90.2115 140.987 90.2353 140.902 90.2746 140.824C90.314 140.747 90.3682 140.678 90.4342 140.621L90.5797 140.468C91.016 140.09 91.459 139.699 91.9019 139.288C92.0308 139.168 92.2018 139.105 92.3772 139.111C92.5527 139.118 92.7182 139.195 92.8374 139.324C92.9567 139.453 93.0198 139.625 93.013 139.801C93.0062 139.977 92.93 140.143 92.8011 140.263C92.3383 140.687 91.8887 141.092 91.4391 141.477L91.2871 141.603C91.1739 141.716 91.0235 141.785 90.864 141.795ZM46.1451 138.478C45.9813 138.478 45.8234 138.416 45.7022 138.306C45.2063 137.848 44.7171 137.384 44.2477 136.919C44.1223 136.796 44.0509 136.628 44.049 136.452C44.0471 136.276 44.115 136.106 44.2378 135.981C44.3605 135.855 44.528 135.783 44.7035 135.781C44.8789 135.779 45.0479 135.847 45.1733 135.971C45.6361 136.428 46.1121 136.879 46.5947 137.297C46.6593 137.356 46.7117 137.428 46.7487 137.507C46.7857 137.586 46.8067 137.672 46.8104 137.76C46.814 137.848 46.8004 137.935 46.7702 138.017C46.74 138.1 46.6938 138.175 46.6344 138.239C46.5744 138.312 46.4997 138.37 46.4154 138.412C46.331 138.453 46.2389 138.476 46.1451 138.478ZM96.9926 135.752C96.8288 135.751 96.6709 135.69 96.5497 135.579C96.4202 135.461 96.3426 135.296 96.334 135.121C96.3253 134.946 96.3862 134.774 96.5034 134.644C96.9398 134.159 97.3827 133.669 97.8257 133.164C97.8816 133.095 97.9511 133.037 98.0299 132.995C98.1087 132.953 98.1951 132.927 98.2841 132.92C98.373 132.912 98.4625 132.922 98.5473 132.95C98.6321 132.978 98.7103 133.023 98.7773 133.082C98.8443 133.142 98.8987 133.214 98.9371 133.295C98.9756 133.375 98.9974 133.463 99.0011 133.553C99.0048 133.642 98.9905 133.731 98.9589 133.815C98.9273 133.899 98.8792 133.975 98.8174 134.04C98.3678 134.551 97.9248 135.048 97.4951 135.533C97.4289 135.597 97.35 135.647 97.2635 135.679C97.1769 135.711 97.0847 135.724 96.9926 135.718V135.752ZM40.3338 132.129C40.2334 132.13 40.1342 132.108 40.0437 132.064C39.9532 132.02 39.8738 131.956 39.8115 131.877C39.3884 131.34 38.9851 130.803 38.595 130.265C38.544 130.194 38.5074 130.114 38.4874 130.029C38.4674 129.944 38.4644 129.856 38.4785 129.769C38.4926 129.683 38.5236 129.6 38.5697 129.526C38.6158 129.452 38.6761 129.387 38.7471 129.337C38.8893 129.235 39.0658 129.194 39.2379 129.223C39.4101 129.251 39.564 129.347 39.6661 129.489C40.0495 130.013 40.4396 130.537 40.8495 131.055C40.9263 131.152 40.9743 131.27 40.9879 131.393C41.0015 131.517 40.9802 131.642 40.9265 131.754C40.8727 131.866 40.7886 131.961 40.6838 132.027C40.579 132.093 40.4578 132.129 40.3338 132.129ZM102.599 129.191C102.445 129.191 102.295 129.137 102.176 129.038C102.042 128.927 101.957 128.767 101.939 128.593C101.922 128.419 101.974 128.245 102.083 128.109C102.5 127.598 102.916 127.088 103.333 126.564C103.387 126.495 103.455 126.439 103.531 126.397C103.608 126.355 103.692 126.329 103.778 126.319C103.865 126.31 103.953 126.318 104.036 126.343C104.12 126.368 104.197 126.409 104.265 126.464C104.4 126.574 104.487 126.734 104.505 126.908C104.524 127.082 104.473 127.256 104.364 127.393L103.108 128.945C103.047 129.021 102.969 129.083 102.881 129.125C102.793 129.168 102.697 129.19 102.599 129.191ZM35.6266 124.932C35.5035 124.928 35.3838 124.89 35.2811 124.822C35.1783 124.754 35.0964 124.659 35.0448 124.547C34.7274 123.93 34.4299 123.313 34.1655 122.716C34.1303 122.636 34.111 122.55 34.1089 122.463C34.1068 122.376 34.1219 122.289 34.1532 122.208C34.1845 122.127 34.2315 122.052 34.2914 121.989C34.3514 121.926 34.4232 121.875 34.5027 121.84C34.5821 121.805 34.6677 121.786 34.7545 121.783C34.8414 121.781 34.9278 121.796 35.0089 121.828C35.0899 121.859 35.164 121.906 35.2269 121.967C35.2898 122.027 35.3402 122.099 35.3753 122.178C35.6332 122.749 35.9175 123.346 36.2216 123.937C36.2615 124.014 36.2855 124.099 36.2925 124.187C36.2994 124.274 36.2891 124.362 36.262 124.445C36.235 124.528 36.1918 124.605 36.1349 124.672C36.0781 124.738 36.0086 124.793 35.9307 124.832C35.8366 124.88 35.7323 124.905 35.6266 124.905V124.932ZM107.954 122.431C107.831 122.43 107.71 122.395 107.605 122.33C107.501 122.264 107.417 122.171 107.362 122.059C107.308 121.948 107.286 121.824 107.298 121.701C107.31 121.578 107.357 121.461 107.432 121.363L108.648 119.79C108.699 119.715 108.764 119.652 108.841 119.603C108.917 119.554 109.002 119.522 109.091 119.508C109.18 119.493 109.271 119.497 109.359 119.52C109.446 119.542 109.528 119.582 109.6 119.637C109.671 119.693 109.73 119.762 109.774 119.842C109.818 119.921 109.845 120.008 109.854 120.098C109.862 120.188 109.853 120.279 109.825 120.366C109.797 120.452 109.752 120.531 109.693 120.6L108.476 122.172C108.412 122.247 108.332 122.307 108.242 122.347C108.151 122.388 108.053 122.407 107.954 122.404V122.431ZM32.8961 116.792C32.7357 116.793 32.5802 116.736 32.4585 116.631C32.3369 116.526 32.2574 116.381 32.235 116.221C32.1424 115.558 32.0829 114.848 32.0565 114.171C32.0565 113.995 32.1261 113.827 32.2501 113.702C32.3741 113.578 32.5423 113.508 32.7176 113.508C32.8929 113.508 33.0611 113.578 33.1851 113.702C33.3091 113.827 33.3787 113.995 33.3787 114.171C33.4007 114.811 33.4559 115.448 33.544 116.082C33.5561 116.169 33.551 116.257 33.5289 116.342C33.5068 116.426 33.4682 116.506 33.4154 116.576C33.3625 116.645 33.2964 116.704 33.2209 116.748C33.1454 116.792 33.062 116.82 32.9754 116.832L32.8961 116.792ZM113.21 115.591C113.086 115.592 112.965 115.558 112.859 115.493C112.753 115.428 112.668 115.334 112.613 115.223C112.558 115.111 112.535 114.987 112.547 114.863C112.559 114.739 112.606 114.621 112.681 114.523L113.891 112.944C114 112.813 114.155 112.729 114.325 112.709C114.494 112.69 114.664 112.737 114.799 112.841C114.935 112.944 115.025 113.096 115.052 113.265C115.079 113.434 115.039 113.606 114.942 113.747L113.719 115.306C113.659 115.384 113.582 115.448 113.494 115.493C113.406 115.538 113.309 115.562 113.21 115.564V115.591ZM222.144 111.942C222.083 111.949 222.021 111.949 221.959 111.942C221.876 111.918 221.798 111.877 221.731 111.823C221.663 111.768 221.607 111.701 221.565 111.624C221.523 111.548 221.497 111.464 221.487 111.378C221.478 111.291 221.485 111.203 221.51 111.12C221.675 110.536 221.854 109.899 222.032 109.216C222.054 109.131 222.092 109.052 222.144 108.982C222.196 108.912 222.262 108.853 222.337 108.809C222.411 108.764 222.494 108.735 222.581 108.723C222.667 108.711 222.754 108.716 222.839 108.738C222.923 108.76 223.002 108.799 223.072 108.852C223.141 108.906 223.199 108.972 223.243 109.048C223.286 109.124 223.315 109.208 223.326 109.294C223.337 109.381 223.331 109.47 223.308 109.554C223.13 110.217 222.951 110.881 222.779 111.485C222.736 111.619 222.651 111.735 222.536 111.818C222.422 111.9 222.285 111.944 222.144 111.942ZM118.433 108.745C118.287 108.744 118.145 108.695 118.03 108.605C117.892 108.498 117.801 108.34 117.779 108.166C117.757 107.992 117.804 107.816 117.911 107.677L119.121 106.098C119.228 105.958 119.387 105.867 119.562 105.844C119.737 105.822 119.913 105.87 120.053 105.978C120.192 106.087 120.283 106.246 120.305 106.421C120.328 106.597 120.28 106.774 120.172 106.914L118.955 108.486C118.892 108.558 118.814 108.616 118.726 108.655C118.638 108.694 118.542 108.713 118.446 108.712L118.433 108.745ZM33.5837 108.274C33.5201 108.283 33.4555 108.283 33.392 108.274C33.2246 108.222 33.0846 108.105 33.0027 107.95C32.9209 107.794 32.904 107.612 32.9556 107.444C33.1473 106.781 33.3787 106.151 33.6167 105.514C33.6455 105.428 33.6914 105.349 33.7517 105.282C33.812 105.214 33.8854 105.16 33.9674 105.122C34.0493 105.084 34.1382 105.064 34.2284 105.062C34.3186 105.06 34.4083 105.076 34.4919 105.11C34.5755 105.144 34.6513 105.195 34.7146 105.26C34.7779 105.324 34.8274 105.401 34.86 105.485C34.8926 105.57 34.9076 105.66 34.9041 105.751C34.9007 105.841 34.8788 105.93 34.8398 106.011C34.6018 106.615 34.3836 107.225 34.1787 107.829C34.1309 107.946 34.0507 108.047 33.9477 108.12C33.8446 108.193 33.7229 108.235 33.5969 108.24L33.5837 108.274ZM224.128 103.51C224.086 103.517 224.044 103.517 224.002 103.51C223.831 103.478 223.679 103.379 223.58 103.235C223.481 103.091 223.442 102.913 223.473 102.741C223.592 102.078 223.705 101.454 223.817 100.791C223.831 100.703 223.863 100.62 223.909 100.545C223.956 100.47 224.016 100.405 224.088 100.353C224.159 100.302 224.24 100.265 224.326 100.245C224.412 100.225 224.501 100.222 224.587 100.237C224.674 100.251 224.757 100.282 224.832 100.329C224.907 100.376 224.972 100.437 225.023 100.508C225.074 100.58 225.111 100.661 225.131 100.747C225.151 100.833 225.154 100.922 225.139 101.009C225.027 101.673 224.915 102.336 224.796 103C224.76 103.149 224.675 103.282 224.553 103.375C224.431 103.468 224.281 103.516 224.128 103.51ZM123.722 101.898C123.598 101.899 123.475 101.864 123.37 101.799C123.264 101.733 123.179 101.638 123.124 101.526C123.07 101.413 123.048 101.288 123.061 101.164C123.075 101.04 123.123 100.922 123.2 100.824L124.436 99.2581C124.489 99.187 124.556 99.1274 124.633 99.0828C124.709 99.0382 124.794 99.0095 124.882 98.9984C124.97 98.9872 125.059 98.9939 125.144 99.0181C125.229 99.0422 125.309 99.0833 125.378 99.1388C125.447 99.1944 125.505 99.2633 125.547 99.3415C125.589 99.4197 125.615 99.5056 125.623 99.5941C125.631 99.6826 125.622 99.7718 125.595 99.8565C125.568 99.9413 125.525 100.02 125.467 100.087L124.238 101.646C124.178 101.723 124.101 101.785 124.015 101.829C123.928 101.872 123.832 101.896 123.735 101.898H123.722ZM37.5174 100.611C37.3766 100.61 37.24 100.564 37.1273 100.479C36.9879 100.374 36.8952 100.219 36.8692 100.046C36.8432 99.8737 36.8861 99.6977 36.9885 99.5566C37.3852 99.0193 37.8083 98.4819 38.2446 97.9578C38.3577 97.8232 38.5195 97.7392 38.6943 97.7243C38.8691 97.7094 39.0427 97.7647 39.1768 97.8782C39.311 97.9917 39.3947 98.154 39.4096 98.3294C39.4244 98.5048 39.3693 98.679 39.2562 98.8136C38.8331 99.3112 38.4298 99.8286 38.0529 100.339C37.9914 100.424 37.9108 100.493 37.8177 100.54C37.7246 100.587 37.6217 100.612 37.5174 100.611ZM129.117 95.1649C128.965 95.1637 128.818 95.1098 128.7 95.0123C128.566 94.901 128.481 94.741 128.464 94.567C128.446 94.3931 128.498 94.2194 128.608 94.0836L129.871 92.5445C129.924 92.4761 129.991 92.419 130.067 92.3765C130.143 92.334 130.226 92.3069 130.312 92.2967C130.399 92.2865 130.486 92.2935 130.57 92.3173C130.653 92.341 130.731 92.381 130.8 92.435C130.868 92.489 130.925 92.556 130.967 92.6321C131.009 92.7081 131.036 92.7918 131.046 92.8784C131.057 92.9649 131.05 93.0526 131.026 93.1365C131.002 93.2204 130.962 93.2987 130.909 93.3671L129.652 94.8995C129.59 94.9828 129.509 95.0503 129.416 95.0964C129.323 95.1425 129.221 95.1659 129.117 95.1649ZM225.291 94.9659H225.239C225.064 94.9523 224.902 94.87 224.788 94.737C224.674 94.604 224.618 94.431 224.63 94.256C224.683 93.5926 224.723 92.9292 224.763 92.2659C224.762 92.1759 224.781 92.0868 224.816 92.0041C224.851 91.9213 224.903 91.8467 224.968 91.7846C225.033 91.7226 225.109 91.6744 225.194 91.6431C225.278 91.6118 225.367 91.598 225.457 91.6025C225.631 91.6127 225.794 91.6917 225.911 91.8222C226.027 91.9527 226.087 92.1241 226.078 92.299C226.045 92.9624 225.999 93.6258 225.946 94.2892C225.948 94.3769 225.932 94.464 225.9 94.5456C225.868 94.6272 225.82 94.7016 225.759 94.7646C225.699 94.8275 225.626 94.8777 225.546 94.9122C225.465 94.9468 225.379 94.965 225.291 94.9659ZM43.4808 94.402C43.3436 94.4026 43.2097 94.3603 43.0975 94.2811C42.9854 94.2019 42.9005 94.0897 42.8548 93.9599C42.809 93.8302 42.8046 93.6894 42.8421 93.557C42.8797 93.4247 42.9573 93.3073 43.0643 93.2211C44.0494 92.4251 44.6841 92.0005 44.7105 91.9806C44.8569 91.8873 45.034 91.8554 45.2036 91.8919C45.3732 91.9284 45.5217 92.0303 45.6171 92.1757C45.7125 92.321 45.7472 92.4981 45.7136 92.6689C45.6801 92.8396 45.581 92.9903 45.4377 93.0885C45.4377 93.0885 44.8229 93.4998 43.8973 94.2494C43.7766 94.3498 43.6243 94.4039 43.4676 94.402H43.4808ZM134.67 88.5575C134.545 88.5562 134.422 88.519 134.316 88.4501C134.211 88.3812 134.127 88.2835 134.075 88.1686C134.023 88.0537 134.005 87.9262 134.022 87.8012C134.04 87.6762 134.093 87.5588 134.175 87.4628C134.604 86.9587 135.041 86.4545 135.497 85.9569C135.553 85.8872 135.622 85.8295 135.701 85.7875C135.78 85.7454 135.866 85.7197 135.955 85.7121C136.044 85.7044 136.134 85.7149 136.218 85.7429C136.303 85.7709 136.381 85.8159 136.448 85.875C136.515 85.9342 136.57 86.0064 136.608 86.0872C136.647 86.168 136.669 86.2558 136.672 86.3452C136.676 86.4347 136.662 86.524 136.63 86.6078C136.599 86.6916 136.55 86.768 136.489 86.8326C136.052 87.3302 135.616 87.8277 135.166 88.3319C135.103 88.4044 135.024 88.4621 134.937 88.501C134.849 88.54 134.753 88.5592 134.657 88.5575H134.67ZM225.45 86.3417C225.281 86.342 225.119 86.2776 224.996 86.1617C224.873 86.0457 224.799 85.8871 224.789 85.7181C224.749 85.0547 224.703 84.3913 224.644 83.7279C224.628 83.552 224.682 83.3769 224.795 83.2413C224.908 83.1057 225.07 83.0206 225.245 83.0048C225.421 82.989 225.595 83.0437 225.73 83.1569C225.865 83.2701 225.95 83.4326 225.966 83.6085C226.025 84.2719 226.078 84.9353 226.111 85.5987C226.112 85.768 226.047 85.9309 225.932 86.0543C225.816 86.1776 225.658 86.2519 225.49 86.2621L225.45 86.3417ZM140.429 82.1291C140.262 82.1285 140.101 82.0645 139.979 81.95C139.852 81.8301 139.777 81.6644 139.77 81.4892C139.764 81.3139 139.827 81.1432 139.946 81.0146C140.396 80.5237 140.852 80.0394 141.308 79.5618C141.431 79.4485 141.593 79.3862 141.76 79.3874C141.927 79.3887 142.087 79.4534 142.209 79.5686C142.33 79.6838 142.404 79.8408 142.415 80.0082C142.425 80.1755 142.373 80.3408 142.267 80.4706L140.945 81.9168C140.876 81.9914 140.792 82.0493 140.698 82.086C140.604 82.1228 140.503 82.1376 140.402 82.1291H140.429ZM224.253 77.8104C224.102 77.8148 223.954 77.7672 223.834 77.6755C223.714 77.5837 223.629 77.4534 223.592 77.3062C223.44 76.6428 223.275 76.0259 223.09 75.4155C223.066 75.3319 223.058 75.2443 223.067 75.1577C223.077 75.0711 223.103 74.9872 223.145 74.9108C223.187 74.8344 223.243 74.767 223.311 74.7125C223.378 74.6579 223.456 74.6173 223.539 74.5929C223.707 74.5434 223.887 74.5623 224.041 74.6456C224.194 74.7289 224.309 74.8697 224.359 75.0374C224.544 75.7008 224.723 76.331 224.882 76.9944C224.902 77.0794 224.906 77.1676 224.893 77.254C224.879 77.3404 224.849 77.4233 224.803 77.4979C224.758 77.5725 224.698 77.6373 224.628 77.6887C224.557 77.74 224.477 77.7769 224.392 77.7971L224.253 77.8104ZM146.425 75.9462C146.295 75.9457 146.167 75.9063 146.058 75.8329C145.95 75.7596 145.866 75.6556 145.816 75.5342C145.767 75.4128 145.754 75.2793 145.78 75.1507C145.806 75.0222 145.87 74.9042 145.963 74.8118L147.397 73.4187C147.459 73.3565 147.532 73.3072 147.612 73.2735C147.693 73.2398 147.779 73.2225 147.867 73.2225C147.954 73.2225 148.04 73.2398 148.121 73.2735C148.201 73.3072 148.275 73.3565 148.336 73.4187C148.459 73.543 148.528 73.7111 148.528 73.8864C148.528 74.0617 148.459 74.2298 148.336 74.3541C147.86 74.8052 147.391 75.2696 146.915 75.734C146.849 75.8049 146.769 75.8606 146.68 75.8973C146.591 75.934 146.495 75.9507 146.399 75.9462H146.425ZM152.752 70.0951C152.618 70.0949 152.487 70.0537 152.377 69.977C152.266 69.9003 152.182 69.7918 152.135 69.6658C152.087 69.5398 152.079 69.4023 152.112 69.2716C152.144 69.1409 152.215 69.0232 152.316 68.9341L153.837 67.6073C153.972 67.4938 154.146 67.4388 154.321 67.4544C154.497 67.4699 154.659 67.5548 154.772 67.6902C154.885 67.8257 154.94 68.0007 154.924 68.1768C154.909 68.3528 154.824 68.5155 154.689 68.629C154.187 69.0469 153.685 69.4781 153.182 69.9093C153.059 70.0279 152.896 70.0944 152.726 70.0951H152.752ZM221.285 69.7435C221.165 69.7425 221.047 69.7086 220.944 69.6455C220.842 69.5824 220.759 69.4924 220.703 69.3852C220.399 68.8081 220.082 68.2376 219.745 67.6869C219.655 67.5364 219.628 67.3563 219.67 67.1859C219.712 67.0156 219.82 66.8689 219.969 66.7781C220.119 66.6878 220.299 66.6608 220.469 66.7031C220.638 66.7454 220.785 66.8535 220.875 67.0036C221.225 67.5742 221.536 68.1712 221.873 68.7683C221.927 68.8697 221.954 68.9835 221.951 69.0984C221.948 69.2133 221.915 69.3253 221.855 69.4237C221.796 69.522 221.712 69.6032 221.612 69.6592C221.512 69.7153 221.4 69.7443 221.285 69.7435ZM159.469 64.7149C159.365 64.7152 159.262 64.6907 159.169 64.6434C159.076 64.5961 158.995 64.5274 158.934 64.4429C158.882 64.3728 158.845 64.2932 158.824 64.2085C158.803 64.1239 158.798 64.0359 158.811 63.9496C158.824 63.8634 158.854 63.7805 158.899 63.7058C158.944 63.631 159.003 63.5659 159.073 63.5142C159.615 63.1161 160.157 62.7313 160.699 62.3466C160.77 62.2965 160.851 62.2609 160.936 62.242C161.02 62.2231 161.108 62.2211 161.194 62.2362C161.279 62.2513 161.361 62.2831 161.435 62.33C161.508 62.3768 161.571 62.4377 161.621 62.5091C161.671 62.5805 161.707 62.6611 161.726 62.7463C161.744 62.8315 161.746 62.9195 161.731 63.0055C161.716 63.0914 161.685 63.1735 161.638 63.2472C161.591 63.3208 161.531 63.3844 161.459 63.4345L159.859 64.5822C159.74 64.6725 159.593 64.7193 159.443 64.7149H159.469ZM216.26 62.791C216.173 62.7907 216.086 62.7729 216.006 62.7387C215.925 62.7046 215.852 62.6547 215.791 62.592C215.35 62.1498 214.881 61.7075 214.383 61.2652C214.251 61.149 214.171 60.9853 214.16 60.8099C214.149 60.6345 214.208 60.4619 214.323 60.3298C214.439 60.198 214.602 60.1177 214.777 60.1065C214.952 60.0953 215.124 60.1542 215.255 60.2701C215.758 60.7146 216.254 61.1856 216.73 61.6699C216.853 61.7942 216.922 61.9623 216.922 62.1376C216.922 62.3129 216.853 62.481 216.73 62.6053C216.664 62.6689 216.587 62.7182 216.501 62.7501C216.416 62.7821 216.325 62.796 216.234 62.791H216.26ZM166.676 59.9782C166.559 59.9787 166.445 59.9483 166.344 59.89C166.243 59.8318 166.159 59.7478 166.101 59.6465C166.014 59.495 165.99 59.3153 166.035 59.1463C166.079 58.9774 166.188 58.8329 166.339 58.7443C166.92 58.406 167.502 58.0809 168.084 57.7625C168.16 57.7189 168.244 57.6908 168.33 57.6797C168.417 57.6687 168.505 57.6749 168.59 57.698C168.674 57.7211 168.753 57.7606 168.822 57.8144C168.892 57.8681 168.95 57.935 168.993 58.0113C169.036 58.0875 169.064 58.1716 169.075 58.2586C169.086 58.3457 169.08 58.4342 169.057 58.5189C169.034 58.6036 168.995 58.6829 168.941 58.7523C168.888 58.8217 168.821 58.8799 168.745 58.9234C168.17 59.2352 167.601 59.5868 167.033 59.892C166.905 59.9674 166.756 59.9978 166.61 59.9782H166.676ZM209.438 57.6431C209.326 57.6434 209.216 57.6136 209.12 57.5568C208.565 57.2517 207.983 56.9531 207.388 56.6745C207.309 56.6371 207.239 56.5844 207.181 56.5196C207.122 56.4549 207.077 56.3792 207.048 56.297C207.019 56.2147 207.006 56.1275 207.011 56.0403C207.015 55.9532 207.037 55.8677 207.074 55.7889C207.111 55.71 207.164 55.6393 207.228 55.5808C207.293 55.5223 207.368 55.4772 207.45 55.4479C207.532 55.4186 207.619 55.4059 207.706 55.4103C207.793 55.4147 207.878 55.4363 207.957 55.4738C208.571 55.7657 209.173 56.0774 209.755 56.3959C209.885 56.4662 209.987 56.5779 210.046 56.7134C210.106 56.849 210.118 57.0004 210.081 57.1438C210.045 57.2871 209.962 57.4142 209.845 57.5046C209.728 57.5951 209.585 57.6438 209.438 57.6431ZM174.365 56.1703C174.211 56.1707 174.061 56.1171 173.942 56.0188C173.824 55.9205 173.743 55.7836 173.714 55.6318C173.685 55.4801 173.709 55.3229 173.784 55.1874C173.858 55.052 173.977 54.9468 174.12 54.89C174.741 54.6379 175.363 54.3991 175.991 54.1735C176.154 54.1194 176.332 54.1313 176.487 54.2068C176.642 54.2823 176.761 54.4154 176.82 54.5778C176.878 54.7402 176.872 54.9191 176.801 55.0765C176.73 55.2339 176.601 55.3574 176.441 55.4207C175.832 55.6396 175.224 55.8718 174.616 56.1239C174.52 56.1631 174.415 56.1791 174.312 56.1703H174.365ZM201.504 54.3792C201.44 54.3856 201.376 54.3856 201.312 54.3792C200.691 54.1934 200.056 54.0209 199.428 53.875C199.253 53.8336 199.101 53.7241 199.006 53.5704C198.911 53.4168 198.881 53.2316 198.922 53.0557C198.964 52.8797 199.073 52.7274 199.226 52.6322C199.379 52.5371 199.563 52.5068 199.739 52.5482C200.4 52.7074 201.061 52.8799 201.722 53.0723C201.898 53.0969 202.056 53.1904 202.163 53.3322C202.269 53.4741 202.315 53.6526 202.291 53.8285C202.266 54.0045 202.173 54.1634 202.032 54.2704C201.89 54.3774 201.712 54.4237 201.537 54.3991L201.504 54.3792ZM182.477 53.6428C182.323 53.6462 182.173 53.5958 182.052 53.5001C181.931 53.4044 181.848 53.2696 181.816 53.1187C181.797 53.0328 181.796 52.9442 181.812 52.8579C181.828 52.7716 181.861 52.6893 181.909 52.6159C181.957 52.5424 182.019 52.4793 182.092 52.4301C182.164 52.3809 182.245 52.3466 182.331 52.3292C182.992 52.1966 183.654 52.0705 184.315 51.971C184.49 51.9437 184.669 51.9875 184.812 52.0926C184.955 52.1977 185.051 52.3556 185.078 52.5316C185.105 52.7075 185.062 52.8871 184.957 53.0308C184.852 53.1745 184.695 53.2705 184.52 53.2978C183.858 53.3973 183.244 53.5167 182.602 53.6494C182.56 53.6531 182.518 53.6509 182.477 53.6428ZM193.008 52.8998H192.962C192.301 52.86 191.64 52.8334 191.019 52.8268C190.843 52.8268 190.675 52.7569 190.551 52.6325C190.427 52.5081 190.357 52.3393 190.357 52.1634C190.357 51.9875 190.427 51.8187 190.551 51.6943C190.675 51.5699 190.843 51.5 191.019 51.5C191.68 51.5 192.341 51.5332 193.035 51.573C193.21 51.5783 193.376 51.6532 193.497 51.7814C193.617 51.9095 193.682 52.0803 193.676 52.2563C193.671 52.4322 193.596 52.5989 193.469 52.7195C193.341 52.8402 193.171 52.9051 192.995 52.8998H193.008Z" fill="#E2E8F0"/>
<path d="M179.592 157.404H103.635L118.636 34.7949H186.375L193.449 44.1687L179.592 157.404Z" fill="#CBD5E1"/>
<path d="M171.376 157.404H95.4119L110.413 34.7949H186.377L171.376 157.404Z" fill="#E2E8F0"/>
<path d="M167.634 134.138H104.166L114.989 45.7266H178.457L167.634 134.138Z" fill="white"/>
<path d="M146.224 95.543L164.564 95.7619L164.207 98.6079L146.224 98.2961V95.543Z" fill="#E2E8F0"/>
<path d="M95.4119 157.404L104.549 165.869L178.456 166.997L179.594 157.404H95.4119Z" fill="#CBD5E1"/>
<path d="M154.049 69.6484C154.049 69.6484 157.215 69.874 158.835 75.8512C160.455 81.8284 159.9 98.5129 159.9 98.5129L146.241 98.294C146.241 98.294 139.424 73.463 154.049 69.6484Z" fill="#16A34A"/>
<path d="M88.4106 33.8166L38.7283 74.3164L64.8035 106.523L114.486 66.0237L88.4106 33.8166Z" fill="#4ADE80"/>
<path d="M88.1409 42.728L65.8963 60.8613L70.2026 66.1803L92.4472 48.047L88.1409 42.728Z" fill="white"/>
<path opacity="0.46" d="M70.4313 83.604L62.4776 90.0876C61.395 90.9701 61.2304 92.5662 62.1099 93.6525L63.2312 95.0376C64.1107 96.1239 65.7013 96.2891 66.7839 95.4066L74.7375 88.9229C75.8201 88.0404 75.9848 86.4444 75.1053 85.3581L73.9839 83.973C73.1044 82.8867 71.5139 82.7215 70.4313 83.604Z" fill="white"/>
<path opacity="0.46" d="M99.4941 59.9172L77.3214 77.9919C76.2388 78.8744 76.0741 80.4705 76.9536 81.5568L78.075 82.9419C78.9545 84.0282 80.545 84.1934 81.6276 83.3109L103.8 65.2361C104.883 64.3536 105.048 62.7576 104.168 61.6713L103.047 60.2862C102.167 59.1999 100.577 59.0347 99.4941 59.9172Z" fill="white"/>
<path opacity="0.3" d="M54.1372 79.8331C56.6347 79.8331 58.6593 77.8015 58.6593 75.2955C58.6593 72.7894 56.6347 70.7578 54.1372 70.7578C51.6397 70.7578 49.6151 72.7894 49.6151 75.2955C49.6151 77.8015 51.6397 79.8331 54.1372 79.8331Z" fill="white"/>
<path opacity="0.3" d="M58.727 75.7003C61.2245 75.7003 63.2492 73.6687 63.2492 71.1626C63.2492 68.6566 61.2245 66.625 58.727 66.625C56.2295 66.625 54.2049 68.6566 54.2049 71.1626C54.2049 73.6687 56.2295 75.7003 58.727 75.7003Z" fill="white"/>
<path d="M154.049 69.6503C154.049 69.6503 146.863 72.2441 149.368 92.564C151.206 107.451 144.998 127.16 135.822 127.399C126.645 127.638 109.721 126.829 109.721 126.829C109.721 126.829 118.533 103.941 116.709 84.7227C116.428 82.032 116.749 79.3125 117.647 76.7619C118.719 73.8363 120.708 70.7913 124.411 70.2938C131.802 69.2854 154.049 69.6503 154.049 69.6503Z" fill="#4ADE80"/>
<path d="M104.635 128.315L137.063 127.651C137.063 127.651 132.118 122.729 131.807 110.197L87.201 110.861C87.9656 114.094 89.141 117.215 90.6984 120.148C92.0456 122.666 94.0602 124.761 96.5196 126.202C98.979 127.644 101.788 128.375 104.635 128.315Z" fill="#4ADE80"/>
<path opacity="0.44" d="M104.635 128.315L137.063 127.651C137.063 127.651 132.118 122.729 131.807 110.197L87.201 110.861C87.9656 114.094 89.141 117.215 90.6984 120.148C92.0456 122.666 94.0602 124.761 96.5196 126.202C98.979 127.644 101.788 128.375 104.635 128.315Z" fill="white"/>
<path d="M128.335 52.1094L127.205 59.5593H159.977L160.969 52.1094H128.335Z" fill="#16A34A"/>
<path opacity="0.48" d="M137.362 140.103C133.825 136.998 128.232 137.609 125.733 141.609C125.102 142.581 124.76 143.713 124.748 144.873C124.748 149.782 128.126 153 134.876 151.646C140.027 150.611 141.99 144.157 137.362 140.103Z" fill="white"/>
<path d="M212.423 157.622C222.494 157.622 230.657 149.431 230.657 139.326C230.657 129.221 222.494 121.029 212.423 121.029C202.353 121.029 194.189 129.221 194.189 139.326C194.189 149.431 202.353 157.622 212.423 157.622Z" fill="#4ADE80"/>
<path opacity="0.09" d="M212.423 157.622C222.494 157.622 230.657 149.431 230.657 139.326C230.657 129.221 222.494 121.029 212.423 121.029C202.353 121.029 194.189 129.221 194.189 139.326C194.189 149.431 202.353 157.622 212.423 157.622Z" fill="#121A26"/>
<path d="M213.251 152.667C223.321 152.667 231.485 144.476 231.485 134.371C231.485 124.266 223.321 116.074 213.251 116.074C203.181 116.074 195.017 124.266 195.017 134.371C195.017 144.476 203.181 152.667 213.251 152.667Z" fill="#4ADE80"/>
<path d="M215.861 123.365C216.469 123.465 216.621 123.71 216.522 124.321L216.304 125.647C218.684 126.397 219.88 127.857 220.555 130.159C220.766 130.822 220.555 131.174 219.808 131.373L218.413 131.737C217.752 131.93 217.487 131.737 217.249 131.074C217.088 130.368 216.704 129.733 216.155 129.262C215.607 128.791 214.922 128.51 214.201 128.46C211.953 128.082 210.81 128.573 210.552 130.086C210.393 131.067 211.213 131.83 212.086 132.175C212.692 132.417 213.312 132.621 213.943 132.786C215.134 133.048 216.281 133.481 217.348 134.073C217.885 134.345 218.367 134.713 218.77 135.161C219.159 135.738 219.428 136.388 219.562 137.071C219.696 137.755 219.692 138.459 219.55 139.141C219.067 142.033 216.806 143.679 213.309 143.606L213.077 144.992C212.972 145.602 212.753 145.782 212.145 145.656L210.684 145.41C210.076 145.304 209.904 145.058 210.023 144.448L210.248 143.121C207.656 142.325 206.109 140.673 205.62 138.133C205.507 137.516 205.785 137.151 206.44 137.018L207.815 136.753C208.516 136.627 208.78 136.839 208.959 137.549C209.296 139.134 210.36 140.083 212.165 140.382C214.598 140.793 215.947 140.229 216.211 138.657C216.29 138.297 216.248 137.922 216.092 137.589C215.935 137.256 215.672 136.986 215.345 136.819C214.549 136.382 213.694 136.062 212.806 135.87C211.602 135.6 210.448 135.139 209.388 134.504C208.861 134.212 208.391 133.828 208 133.369C207.604 132.819 207.326 132.193 207.184 131.529C207.041 130.866 207.038 130.18 207.173 129.515C207.65 126.649 209.772 125.037 213.236 125.157L213.454 123.83C213.553 123.219 213.805 123.047 214.413 123.166L215.861 123.365Z" fill="white"/>
<path d="M122.827 77.9012C122.74 77.9042 122.654 77.8901 122.572 77.8596C122.491 77.8291 122.416 77.7828 122.353 77.7233C122.289 77.6639 122.238 77.5924 122.202 77.5131C122.166 77.4338 122.146 77.3481 122.143 77.261C122.14 77.1739 122.154 77.087 122.184 77.0054C122.215 76.9237 122.261 76.8489 122.32 76.7851C122.379 76.7214 122.45 76.6699 122.53 76.6338C122.609 76.5976 122.694 76.5774 122.781 76.5744C122.92 76.5744 136.744 75.5528 144.155 76.2162C144.33 76.232 144.492 76.3171 144.605 76.4527C144.718 76.5883 144.773 76.7633 144.757 76.9393C144.741 77.1152 144.656 77.2777 144.521 77.3909C144.386 77.5041 144.211 77.5588 144.036 77.543C136.764 76.8796 123.012 77.8813 122.88 77.8946L122.827 77.9012Z" fill="white"/>
<path d="M121.726 86.8777C121.639 86.8808 121.552 86.8666 121.471 86.8361C121.389 86.8056 121.315 86.7593 121.251 86.6999C121.123 86.5798 121.047 86.4135 121.041 86.2376C121.035 86.0616 121.099 85.8904 121.219 85.7617C121.338 85.6329 121.504 85.5571 121.679 85.551C121.818 85.551 135.642 84.5293 143.054 85.1927C143.229 85.2086 143.391 85.2936 143.504 85.4292C143.616 85.5648 143.671 85.7399 143.655 85.9158C143.639 86.0918 143.555 86.2542 143.419 86.3674C143.284 86.4806 143.11 86.5353 142.935 86.5195C135.662 85.8561 121.917 86.8645 121.778 86.8711L121.726 86.8777Z" fill="white"/>
<path d="M121.6 96.2059C121.425 96.2129 121.254 96.1498 121.125 96.0303C120.996 95.9109 120.919 95.745 120.912 95.569C120.905 95.3931 120.968 95.2215 121.087 95.0922C121.206 94.9628 121.372 94.8861 121.547 94.8791C121.686 94.8791 135.517 93.8574 142.921 94.5208C143.008 94.5287 143.093 94.5536 143.17 94.5942C143.247 94.6348 143.316 94.6902 143.372 94.7574C143.427 94.8245 143.47 94.902 143.496 94.9855C143.522 95.069 143.531 95.1568 143.523 95.244C143.515 95.3311 143.49 95.4158 143.45 95.4933C143.41 95.5708 143.354 95.6395 143.287 95.6956C143.22 95.7516 143.143 95.7939 143.06 95.82C142.977 95.8461 142.889 95.8555 142.802 95.8477C135.53 95.1842 121.785 96.1926 121.646 96.1993L121.6 96.2059Z" fill="white"/>
<path d="M120.722 105.533C120.635 105.536 120.548 105.522 120.467 105.492C120.385 105.461 120.311 105.415 120.247 105.355C120.184 105.296 120.133 105.224 120.097 105.145C120.06 105.066 120.04 104.98 120.037 104.893C120.034 104.806 120.048 104.719 120.079 104.637C120.109 104.556 120.155 104.481 120.215 104.417C120.274 104.353 120.345 104.302 120.424 104.266C120.503 104.23 120.589 104.209 120.675 104.206C120.814 104.206 134.638 103.185 142.05 103.855C142.136 103.863 142.221 103.887 142.298 103.928C142.375 103.969 142.444 104.024 142.5 104.091C142.556 104.158 142.598 104.236 142.624 104.319C142.65 104.403 142.659 104.491 142.651 104.578C142.643 104.665 142.619 104.75 142.578 104.827C142.538 104.905 142.482 104.973 142.416 105.029C142.349 105.085 142.271 105.128 142.188 105.154C142.105 105.18 142.017 105.189 141.931 105.182C134.658 104.518 120.913 105.526 120.774 105.533H120.722Z" fill="white"/>
<path d="M35.8279 164.053L37.5871 168.823L42.3415 170.589L37.5871 172.354L35.8279 177.125L34.0686 172.354L29.3143 170.589L34.0686 168.823L35.8279 164.053Z" fill="#E2E8F0"/>
<path d="M237.75 54.248L239.509 59.0187L244.263 60.784L239.509 62.5493L237.75 67.3199L235.99 62.5493L231.236 60.784L235.99 59.0187L237.75 54.248Z" fill="#E2E8F0"/>
<path d="M25.0833 145.752L26.2268 148.853L29.3171 150L26.2268 151.148L25.0833 154.249L23.9398 151.148L20.8494 150L23.9398 148.853L25.0833 145.752Z" fill="#E2E8F0"/>
<path d="M225.048 22.2227L226.191 25.3236L229.282 26.471L226.191 27.6185L225.048 30.7194L223.904 27.6185L220.814 26.471L223.904 25.3236L225.048 22.2227Z" fill="#E2E8F0"/>
<path d="M188.574 19.6074L189.19 21.2771L190.854 21.895L189.19 22.5129L188.574 24.1826L187.959 22.5129L186.295 21.895L187.959 21.2771L188.574 19.6074Z" fill="#E2E8F0"/>
</svg>
